<?xml version="1.0" encoding="UTF-8" standalone="no"?><svg xmlns="http://www.w3.org/2000/svg" xmlns:xlink="http://www.w3.org/1999/xlink" contentScriptType="application/ecmascript" contentStyleType="text/css" height="932px" preserveAspectRatio="none" style="width:938px;height:932px;" version="1.1" viewBox="0 0 938 932" width="938px" zoomAndPan="magnify"><defs><filter height="300%" id="f51beo28f1ekv" width="300%" x="-1" y="-1"><feGaussianBlur result="blurOut" stdDeviation="2.0"/><feColorMatrix in="blurOut" result="blurOut2" type="matrix" values="0 0 0 0 0 0 0 0 0 0 0 0 0 0 0 0 0 0 .4 0"/><feOffset dx="4.0" dy="4.0" in="blurOut2" result="blurOut3"/><feBlend in="SourceGraphic" in2="blurOut3" mode="normal"/></filter></defs><g><text fill="#000000" font-family="sans-serif" font-size="18" lengthAdjust="spacingAndGlyphs" textLength="215" x="362.25" y="27.4023">Celo SDK Decomposition</text><rect fill="#FFFFFF" filter="url(#f51beo28f1ekv)" height="58.6211" style="stroke: #A80036; stroke-width: 1.0;" width="10" x="611" y="504.7246"/><line style="stroke: #A80036; stroke-width: 1.0; stroke-dasharray: 5.0,5.0;" x1="26" x2="26" y1="121.6875" y2="845.1406"/><line style="stroke: #A80036; stroke-width: 1.0; stroke-dasharray: 5.0,5.0;" x1="318.5" x2="318.5" y1="121.6875" y2="845.1406"/><line style="stroke: #A80036; stroke-width: 1.0; stroke-dasharray: 5.0,5.0;" x1="434.5" x2="434.5" y1="121.6875" y2="845.1406"/><line style="stroke: #A80036; stroke-width: 1.0; stroke-dasharray: 5.0,5.0;" x1="615.5" x2="615.5" y1="121.6875" y2="845.1406"/><line style="stroke: #A80036; stroke-width: 1.0; stroke-dasharray: 5.0,5.0;" x1="752.5" x2="752.5" y1="121.6875" y2="845.1406"/><line style="stroke: #A80036; stroke-width: 1.0; stroke-dasharray: 5.0,5.0;" x1="878.5" x2="878.5" y1="121.6875" y2="845.1406"/><text fill="#000000" font-family="sans-serif" font-size="14" lengthAdjust="spacingAndGlyphs" textLength="30" x="8" y="118.7344">user</text><ellipse cx="26" cy="48.1992" fill="#FEFECE" filter="url(#f51beo28f1ekv)" rx="8" ry="8" style="stroke: #A80036; stroke-width: 2.0;"/><path d="M26,56.1992 L26,83.1992 M13,64.1992 L39,64.1992 M26,83.1992 L13,98.1992 M26,83.1992 L39,98.1992 " fill="none" filter="url(#f51beo28f1ekv)" style="stroke: #A80036; stroke-width: 2.0;"/><text fill="#000000" font-family="sans-serif" font-size="14" lengthAdjust="spacingAndGlyphs" textLength="30" x="8" y="857.6758">user</text><ellipse cx="26" cy="870.6289" fill="#FEFECE" filter="url(#f51beo28f1ekv)" rx="8" ry="8" style="stroke: #A80036; stroke-width: 2.0;"/><path d="M26,878.6289 L26,905.6289 M13,886.6289 L39,886.6289 M26,905.6289 L13,920.6289 M26,905.6289 L39,920.6289 " fill="none" filter="url(#f51beo28f1ekv)" style="stroke: #A80036; stroke-width: 2.0;"/><rect fill="#FEFECE" filter="url(#f51beo28f1ekv)" height="30.4883" style="stroke: #A80036; stroke-width: 1.5;" width="85" x="274.5" y="86.1992"/><text fill="#000000" font-family="sans-serif" font-size="14" lengthAdjust="spacingAndGlyphs" textLength="71" x="281.5" y="106.7344">@celo/sdk</text><rect fill="#FEFECE" filter="url(#f51beo28f1ekv)" height="30.4883" style="stroke: #A80036; stroke-width: 1.5;" width="85" x="274.5" y="844.1406"/><text fill="#000000" font-family="sans-serif" font-size="14" lengthAdjust="spacingAndGlyphs" textLength="71" x="281.5" y="864.6758">@celo/sdk</text><rect fill="#FEFECE" filter="url(#f51beo28f1ekv)" height="30.4883" style="stroke: #A80036; stroke-width: 1.5;" width="119" x="373.5" y="86.1992"/><text fill="#000000" font-family="sans-serif" font-size="14" lengthAdjust="spacingAndGlyphs" textLength="105" x="380.5" y="106.7344">@celo/provider</text><rect fill="#FEFECE" filter="url(#f51beo28f1ekv)" height="30.4883" style="stroke: #A80036; stroke-width: 1.5;" width="119" x="373.5" y="844.1406"/><text fill="#000000" font-family="sans-serif" font-size="14" lengthAdjust="spacingAndGlyphs" textLength="105" x="380.5" y="864.6758">@celo/provider</text><rect fill="#FEFECE" filter="url(#f51beo28f1ekv)" height="30.4883" style="stroke: #A80036; stroke-width: 1.5;" width="121" x="553.5" y="86.1992"/><text fill="#000000" font-family="sans-serif" font-size="14" lengthAdjust="spacingAndGlyphs" textLength="107" x="560.5" y="106.7344">@celo/exporter</text><rect fill="#FEFECE" filter="url(#f51beo28f1ekv)" height="30.4883" style="stroke: #A80036; stroke-width: 1.5;" width="121" x="553.5" y="844.1406"/><text fill="#000000" font-family="sans-serif" font-size="14" lengthAdjust="spacingAndGlyphs" textLength="107" x="560.5" y="864.6758">@celo/exporter</text><rect fill="#FEFECE" filter="url(#f51beo28f1ekv)" height="30.4883" style="stroke: #A80036; stroke-width: 1.5;" width="124" x="688.5" y="86.1992"/><text fill="#000000" font-family="sans-serif" font-size="14" lengthAdjust="spacingAndGlyphs" textLength="110" x="695.5" y="106.7344">@celo/contracts</text><rect fill="#FEFECE" filter="url(#f51beo28f1ekv)" height="30.4883" style="stroke: #A80036; stroke-width: 1.5;" width="124" x="688.5" y="844.1406"/><text fill="#000000" font-family="sans-serif" font-size="14" lengthAdjust="spacingAndGlyphs" textLength="110" x="695.5" y="864.6758">@celo/contracts</text><rect fill="#FEFECE" filter="url(#f51beo28f1ekv)" height="30.4883" style="stroke: #A80036; stroke-width: 1.5;" width="101" x="826.5" y="86.1992"/><text fill="#000000" font-family="sans-serif" font-size="14" lengthAdjust="spacingAndGlyphs" textLength="87" x="833.5" y="106.7344">@celo/wallet</text><rect fill="#FEFECE" filter="url(#f51beo28f1ekv)" height="30.4883" style="stroke: #A80036; stroke-width: 1.5;" width="101" x="826.5" y="844.1406"/><text fill="#000000" font-family="sans-serif" font-size="14" lengthAdjust="spacingAndGlyphs" textLength="87" x="833.5" y="864.6758">@celo/wallet</text><rect fill="#FFFFFF" filter="url(#f51beo28f1ekv)" height="58.6211" style="stroke: #A80036; stroke-width: 1.0;" width="10" x="611" y="504.7246"/><polygon fill="#A80036" points="307,148.998,317,152.998,307,156.998,311,152.998" style="stroke: #A80036; stroke-width: 1.0;"/><line style="stroke: #A80036; stroke-width: 1.0;" x1="26" x2="313" y1="152.998" y2="152.998"/><text fill="#000000" font-family="sans-serif" font-size="13" lengthAdjust="spacingAndGlyphs" textLength="175" x="33" y="148.2559">config(node-url,wallet-url?)</text><polygon fill="#A80036" points="423,178.3086,433,182.3086,423,186.3086,427,182.3086" style="stroke: #A80036; stroke-width: 1.0;"/><line style="stroke: #A80036; stroke-width: 1.0;" x1="319" x2="429" y1="182.3086" y2="182.3086"/><text fill="#000000" font-family="sans-serif" font-size="13" lengthAdjust="spacingAndGlyphs" textLength="85" x="326" y="177.5664">init(node-url)</text><polygon fill="#A80036" points="330,207.6191,320,211.6191,330,215.6191,326,211.6191" style="stroke: #A80036; stroke-width: 1.0;"/><line style="stroke: #A80036; stroke-width: 1.0; stroke-dasharray: 2.0,2.0;" x1="324" x2="434" y1="211.6191" y2="211.6191"/><text fill="#000000" font-family="sans-serif" font-size="13" lengthAdjust="spacingAndGlyphs" textLength="62" x="336" y="206.877">rpc-caller</text><polygon fill="#A80036" points="604,236.9297,614,240.9297,604,244.9297,608,240.9297" style="stroke: #A80036; stroke-width: 1.0;"/><line style="stroke: #A80036; stroke-width: 1.0;" x1="319" x2="610" y1="240.9297" y2="240.9297"/><text fill="#000000" font-family="sans-serif" font-size="13" lengthAdjust="spacingAndGlyphs" textLength="91" x="326" y="236.1875">init(rpc-caller)</text><polygon fill="#A80036" points="330,266.2402,320,270.2402,330,274.2402,326,270.2402" style="stroke: #A80036; stroke-width: 1.0;"/><line style="stroke: #A80036; stroke-width: 1.0; stroke-dasharray: 2.0,2.0;" x1="324" x2="615" y1="270.2402" y2="270.2402"/><text fill="#000000" font-family="sans-serif" font-size="13" lengthAdjust="spacingAndGlyphs" textLength="53" x="336" y="265.498">exporter</text><polygon fill="#A80036" points="740.5,295.5508,750.5,299.5508,740.5,303.5508,744.5,299.5508" style="stroke: #A80036; stroke-width: 1.0;"/><line style="stroke: #A80036; stroke-width: 1.0;" x1="319" x2="746.5" y1="299.5508" y2="299.5508"/><text fill="#000000" font-family="sans-serif" font-size="13" lengthAdjust="spacingAndGlyphs" textLength="91" x="326" y="294.8086">init(rpc-caller)</text><polygon fill="#A80036" points="330,324.8613,320,328.8613,330,332.8613,326,328.8613" style="stroke: #A80036; stroke-width: 1.0;"/><line style="stroke: #A80036; stroke-width: 1.0; stroke-dasharray: 2.0,2.0;" x1="324" x2="751.5" y1="328.8613" y2="328.8613"/><text fill="#000000" font-family="sans-serif" font-size="13" lengthAdjust="spacingAndGlyphs" textLength="59" x="336" y="324.1191">contracts</text><polygon fill="#A80036" points="867,354.1719,877,358.1719,867,362.1719,871,358.1719" style="stroke: #A80036; stroke-width: 1.0;"/><line style="stroke: #A80036; stroke-width: 1.0;" x1="319" x2="873" y1="358.1719" y2="358.1719"/><text fill="#000000" font-family="sans-serif" font-size="13" lengthAdjust="spacingAndGlyphs" textLength="91" x="326" y="353.4297">init(wallet-url)</text><polygon fill="#A80036" points="330,383.4824,320,387.4824,330,391.4824,326,387.4824" style="stroke: #A80036; stroke-width: 1.0;"/><line style="stroke: #A80036; stroke-width: 1.0; stroke-dasharray: 2.0,2.0;" x1="324" x2="878" y1="387.4824" y2="387.4824"/><text fill="#000000" font-family="sans-serif" font-size="13" lengthAdjust="spacingAndGlyphs" textLength="37" x="336" y="382.7402">wallet</text><polygon fill="#A80036" points="37,412.793,27,416.793,37,420.793,33,416.793" style="stroke: #A80036; stroke-width: 1.0;"/><line style="stroke: #A80036; stroke-width: 1.0; stroke-dasharray: 2.0,2.0;" x1="31" x2="318" y1="416.793" y2="416.793"/><text fill="#000000" font-family="sans-serif" font-size="13" lengthAdjust="spacingAndGlyphs" textLength="269" x="43" y="412.0508">sdk{rpc-caller,exporter?,contracts?,wallet?}</text><polygon fill="#A80036" points="423,442.1035,433,446.1035,423,450.1035,427,446.1035" style="stroke: #A80036; stroke-width: 1.0;"/><line style="stroke: #A80036; stroke-width: 1.0;" x1="26" x2="429" y1="446.1035" y2="446.1035"/><text fill="#000000" font-family="sans-serif" font-size="13" lengthAdjust="spacingAndGlyphs" textLength="166" x="33" y="441.3613">rpc-caller.getLatestBlock()</text><polygon fill="#A80036" points="37,471.4141,27,475.4141,37,479.4141,33,475.4141" style="stroke: #A80036; stroke-width: 1.0;"/><line style="stroke: #A80036; stroke-width: 1.0; stroke-dasharray: 2.0,2.0;" x1="31" x2="434" y1="475.4141" y2="475.4141"/><text fill="#000000" font-family="sans-serif" font-size="13" lengthAdjust="spacingAndGlyphs" textLength="24" x="43" y="470.6719">100</text><polygon fill="#A80036" points="599,500.7246,609,504.7246,599,508.7246,603,504.7246" style="stroke: #A80036; stroke-width: 1.0;"/><line style="stroke: #A80036; stroke-width: 1.0;" x1="26" x2="605" y1="504.7246" y2="504.7246"/><text fill="#000000" font-family="sans-serif" font-size="13" lengthAdjust="spacingAndGlyphs" textLength="143" x="33" y="499.9824">exporter.getBlock(100)</text><polygon fill="#A80036" points="446,530.0352,436,534.0352,446,538.0352,442,534.0352" style="stroke: #A80036; stroke-width: 1.0;"/><line style="stroke: #A80036; stroke-width: 1.0;" x1="440" x2="610" y1="534.0352" y2="534.0352"/><text fill="#000000" font-family="sans-serif" font-size="13" lengthAdjust="spacingAndGlyphs" textLength="152" x="452" y="529.293">rpc-caller.getBlock(100)</text><polygon fill="#A80036" points="604,559.3457,614,563.3457,604,567.3457,608,563.3457" style="stroke: #A80036; stroke-width: 1.0;"/><line style="stroke: #A80036; stroke-width: 1.0; stroke-dasharray: 2.0,2.0;" x1="435" x2="610" y1="563.3457" y2="563.3457"/><text fill="#000000" font-family="sans-serif" font-size="13" lengthAdjust="spacingAndGlyphs" textLength="65" x="442" y="558.6035">raw-block</text><polygon fill="#A80036" points="37,588.6563,27,592.6563,37,596.6563,33,592.6563" style="stroke: #A80036; stroke-width: 1.0;"/><line style="stroke: #A80036; stroke-width: 1.0; stroke-dasharray: 2.0,2.0;" x1="31" x2="615" y1="592.6563" y2="592.6563"/><text fill="#000000" font-family="sans-serif" font-size="13" lengthAdjust="spacingAndGlyphs" textLength="167" x="43" y="587.9141">block{headers,tx-receipts}</text><polygon fill="#A80036" points="740.5,617.9668,750.5,621.9668,740.5,625.9668,744.5,621.9668" style="stroke: #A80036; stroke-width: 1.0;"/><line style="stroke: #A80036; stroke-width: 1.0;" x1="26" x2="746.5" y1="621.9668" y2="621.9668"/><text fill="#000000" font-family="sans-serif" font-size="13" lengthAdjust="spacingAndGlyphs" textLength="169" x="33" y="617.2246">contracts.parse(tx-receipt)</text><polygon fill="#A80036" points="37,647.2773,27,651.2773,37,655.2773,33,651.2773" style="stroke: #A80036; stroke-width: 1.0;"/><line style="stroke: #A80036; stroke-width: 1.0; stroke-dasharray: 2.0,2.0;" x1="31" x2="751.5" y1="651.2773" y2="651.2773"/><text fill="#000000" font-family="sans-serif" font-size="13" lengthAdjust="spacingAndGlyphs" textLength="113" x="43" y="646.5352">call-details?,logs?</text><polygon fill="#A80036" points="740.5,676.5879,750.5,680.5879,740.5,684.5879,744.5,680.5879" style="stroke: #A80036; stroke-width: 1.0;"/><line style="stroke: #A80036; stroke-width: 1.0;" x1="26" x2="746.5" y1="680.5879" y2="680.5879"/><text fill="#000000" font-family="sans-serif" font-size="13" lengthAdjust="spacingAndGlyphs" textLength="164" x="33" y="675.8457">contracts.election.vote(...)</text><polygon fill="#A80036" points="37,705.8984,27,709.8984,37,713.8984,33,709.8984" style="stroke: #A80036; stroke-width: 1.0;"/><line style="stroke: #A80036; stroke-width: 1.0; stroke-dasharray: 2.0,2.0;" x1="31" x2="751.5" y1="709.8984" y2="709.8984"/><text fill="#000000" font-family="sans-serif" font-size="13" lengthAdjust="spacingAndGlyphs" textLength="48" x="43" y="705.1563">vote-tx</text><polygon fill="#A80036" points="867,735.209,877,739.209,867,743.209,871,739.209" style="stroke: #A80036; stroke-width: 1.0;"/><line style="stroke: #A80036; stroke-width: 1.0;" x1="26" x2="873" y1="739.209" y2="739.209"/><text fill="#000000" font-family="sans-serif" font-size="13" lengthAdjust="spacingAndGlyphs" textLength="124" x="33" y="734.4668">wallet.sign(vote-tx)</text><polygon fill="#A80036" points="37,764.5195,27,768.5195,37,772.5195,33,768.5195" style="stroke: #A80036; stroke-width: 1.0;"/><line style="stroke: #A80036; stroke-width: 1.0; stroke-dasharray: 2.0,2.0;" x1="31" x2="878" y1="768.5195" y2="768.5195"/><text fill="#000000" font-family="sans-serif" font-size="13" lengthAdjust="spacingAndGlyphs" textLength="98" x="43" y="763.7773">signed-vote-tx</text><polygon fill="#A80036" points="423,793.8301,433,797.8301,423,801.8301,427,797.8301" style="stroke: #A80036; stroke-width: 1.0;"/><line style="stroke: #A80036; stroke-width: 1.0;" x1="26" x2="429" y1="797.8301" y2="797.8301"/><text fill="#000000" font-family="sans-serif" font-size="13" lengthAdjust="spacingAndGlyphs" textLength="152" x="33" y="793.0879">rpc-caller.send(vote-tx)</text><polygon fill="#A80036" points="37,823.1406,27,827.1406,37,831.1406,33,827.1406" style="stroke: #A80036; stroke-width: 1.0;"/><line style="stroke: #A80036; stroke-width: 1.0; stroke-dasharray: 2.0,2.0;" x1="31" x2="434" y1="827.1406" y2="827.1406"/><text fill="#000000" font-family="sans-serif" font-size="13" lengthAdjust="spacingAndGlyphs" textLength="86" x="43" y="822.3984">vote-tx-hash</text><!--MD5=[d89b55ebe03a8fda9514f51760b144b5]
@startuml
title Celo SDK Decomposition

actor user

participant "@celo/sdk"
participant "@celo/provider"
participant "@celo/exporter"
participant "@celo/contracts"
participant "@celo/wallet"

user->"@celo/sdk":config(node-url,wallet-url?)
"@celo/sdk"->"@celo/provider":init(node-url)
"@celo/sdk"<- -"@celo/provider":rpc-caller
"@celo/sdk"->"@celo/exporter":init(rpc-caller)
"@celo/sdk"<- -"@celo/exporter":exporter
"@celo/sdk"->"@celo/contracts":init(rpc-caller)
"@celo/sdk"<- -"@celo/contracts":contracts
"@celo/sdk"->"@celo/wallet":init(wallet-url)
"@celo/sdk"<- -"@celo/wallet":wallet
user<- -"@celo/sdk":sdk{rpc-caller,exporter?,contracts?,wallet?}

user->"@celo/provider":rpc-caller.getLatestBlock()
user<- -"@celo/provider":100

user->"@celo/exporter":exporter.getBlock(100)
activate "@celo/exporter"
"@celo/exporter"->"@celo/provider":rpc-caller.getBlock(100)
"@celo/exporter"<- -"@celo/provider":raw-block
deactivate "@celo/exporter"
user<- -"@celo/exporter":block{headers,tx-receipts}

user->"@celo/contracts":contracts.parse(tx-receipt)
user<- -"@celo/contracts":call-details?,logs?

user->"@celo/contracts":contracts.election.vote(...)
user<- -"@celo/contracts":vote-tx

user->"@celo/wallet":wallet.sign(vote-tx)
user<- -"@celo/wallet":signed-vote-tx

user->"@celo/provider":rpc-caller.send(vote-tx)
user<- -"@celo/provider":vote-tx-hash

@enduml

PlantUML version 1.2020.10(Sun May 17 02:35:57 PDT 2020)
(GPL source distribution)
Java Runtime: OpenJDK Runtime Environment
JVM: OpenJDK 64-Bit Server VM
Java Version: 1.8.0_242-b08
Operating System: Mac OS X
Default Encoding: UTF-8
Language: en
Country: US
--></g></svg>